# MagicaVoxel @ Ephtracy

# material
mtllib VoxelCrossbow.mtl
usemtl palette

# normals
vn -1 0 0
vn 1 0 0
vn 0 0 1
vn 0 0 -1
vn 0 -1 0
vn 0 1 0

# texcoords
vt 0.537109 0.5
vt 0.970703 0.5

# verts
v -9.5 3 7
v -9.5 3 6
v -9.5 3 4
v -9.5 5 7
v -9.5 5 6
v -9.5 5 4
v -8.5 3 8
v -8.5 3 7
v -8.5 3 4
v -8.5 3 3
v -8.5 5 8
v -8.5 5 7
v -8.5 5 4
v -8.5 5 3
v -7.5 3 9
v -7.5 3 8
v -7.5 3 3
v -7.5 3 2
v -7.5 5 9
v -7.5 5 8
v -7.5 5 3
v -7.5 5 2
v -6.5 3 10
v -6.5 3 9
v -6.5 3 2
v -6.5 3 1
v -6.5 5 10
v -6.5 5 9
v -6.5 5 2
v -6.5 5 1
v -5.5 3 11
v -5.5 3 10
v -5.5 3 1
v -5.5 3 -0
v -5.5 5 11
v -5.5 5 10
v -5.5 5 1
v -5.5 5 -0
v -4.5 3 12
v -4.5 3 11
v -4.5 3 -0
v -4.5 3 -1
v -4.5 5 12
v -4.5 5 11
v -4.5 5 -0
v -4.5 5 -1
v -3.5 3 13
v -3.5 3 12
v -3.5 5 13
v -3.5 5 12
v -2.5 1 17
v -2.5 1 15
v -2.5 1 1
v -2.5 1 -1
v -2.5 2 15
v -2.5 2 13
v -2.5 3 17
v -2.5 3 14
v -2.5 3 13
v -2.5 3 1
v -2.5 3 -0
v -2.5 3 -1
v -2.5 4 14
v -2.5 4 13
v -2.5 5 14
v -2.5 5 13
v -1.5 0 17
v -1.5 0 15
v -1.5 1 17
v -1.5 1 15
v -1.5 1 13
v -1.5 1 2
v -1.5 1 1
v -1.5 2 15
v -1.5 2 13
v -1.5 2 2
v -1.5 3 17
v -1.5 3 14
v -1.5 3 13
v -1.5 3 12
v -1.5 3 1
v -1.5 3 -0
v -1.5 4 17
v -1.5 4 15
v -1.5 4 14
v -1.5 4 12
v -1.5 4 -0
v -1.5 5 15
v -1.5 5 14
v 0.5 3 14
v 0.5 3 -1
v 0.5 4 14
v 0.5 4 -1
v 1.5 4 14
v 1.5 4 13
v 1.5 4 -0
v 1.5 4 -1
v 1.5 5 14
v 1.5 5 13
v 1.5 5 -0
v 1.5 5 -1
v 2.5 4 13
v 2.5 4 12
v 2.5 5 13
v 2.5 5 12
v 3.5 3 12
v 3.5 3 11
v 3.5 3 1
v 3.5 3 -0
v 3.5 5 12
v 3.5 5 11
v 3.5 5 1
v 3.5 5 -0
v 4.5 3 11
v 4.5 3 10
v 4.5 3 2
v 4.5 3 1
v 4.5 5 11
v 4.5 5 10
v 4.5 5 2
v 4.5 5 1
v 5.5 3 10
v 5.5 3 9
v 5.5 3 3
v 5.5 3 2
v 5.5 5 10
v 5.5 5 9
v 5.5 5 3
v 5.5 5 2
v 6.5 3 9
v 6.5 3 8
v 6.5 3 4
v 6.5 3 3
v 6.5 5 9
v 6.5 5 8
v 6.5 5 4
v 6.5 5 3
v 7.5 3 8
v 7.5 3 6
v 7.5 3 5
v 7.5 3 4
v 7.5 4 7
v 7.5 4 6
v 7.5 5 8
v 7.5 5 7
v 7.5 5 5
v 7.5 5 4
v 8.5 3 6
v 8.5 3 5
v 8.5 4 7
v 8.5 4 6
v 8.5 5 7
v 8.5 5 6
v 8.5 5 5
v -8.5 3 6
v -8.5 3 5
v -8.5 4 7
v -8.5 4 6
v -8.5 5 7
v -8.5 5 6
v -8.5 5 5
v -7.5 3 8
v -7.5 3 6
v -7.5 3 5
v -7.5 3 4
v -7.5 4 7
v -7.5 4 6
v -7.5 5 8
v -7.5 5 7
v -7.5 5 5
v -7.5 5 4
v -6.5 3 9
v -6.5 3 8
v -6.5 3 4
v -6.5 3 3
v -6.5 5 9
v -6.5 5 8
v -6.5 5 4
v -6.5 5 3
v -5.5 3 10
v -5.5 3 9
v -5.5 3 3
v -5.5 3 2
v -5.5 5 10
v -5.5 5 9
v -5.5 5 3
v -5.5 5 2
v -4.5 3 11
v -4.5 3 10
v -4.5 3 2
v -4.5 3 1
v -4.5 5 11
v -4.5 5 10
v -4.5 5 2
v -4.5 5 1
v -3.5 3 12
v -3.5 3 11
v -3.5 3 1
v -3.5 3 -0
v -3.5 5 12
v -3.5 5 11
v -3.5 5 1
v -3.5 5 -0
v -2.5 4 13
v -2.5 4 12
v -2.5 5 13
v -2.5 5 12
v -1.5 4 14
v -1.5 4 13
v -1.5 4 -0
v -1.5 4 -1
v -1.5 5 14
v -1.5 5 13
v -1.5 5 -0
v -1.5 5 -1
v -0.5 3 14
v -0.5 3 -1
v -0.5 4 14
v -0.5 4 -1
v 1.5 0 17
v 1.5 0 15
v 1.5 1 17
v 1.5 1 15
v 1.5 1 13
v 1.5 1 2
v 1.5 1 1
v 1.5 2 15
v 1.5 2 13
v 1.5 2 2
v 1.5 3 17
v 1.5 3 14
v 1.5 3 13
v 1.5 3 12
v 1.5 3 1
v 1.5 3 -0
v 1.5 4 17
v 1.5 4 15
v 1.5 4 14
v 1.5 4 12
v 1.5 4 -0
v 1.5 5 15
v 1.5 5 14
v 2.5 1 17
v 2.5 1 15
v 2.5 1 1
v 2.5 1 -1
v 2.5 2 15
v 2.5 2 13
v 2.5 3 17
v 2.5 3 14
v 2.5 3 13
v 2.5 3 1
v 2.5 3 -0
v 2.5 3 -1
v 2.5 4 14
v 2.5 4 13
v 2.5 5 14
v 2.5 5 13
v 3.5 3 13
v 3.5 3 12
v 3.5 5 13
v 3.5 5 12
v 4.5 3 12
v 4.5 3 11
v 4.5 3 -0
v 4.5 3 -1
v 4.5 5 12
v 4.5 5 11
v 4.5 5 -0
v 4.5 5 -1
v 5.5 3 11
v 5.5 3 10
v 5.5 3 1
v 5.5 3 -0
v 5.5 5 11
v 5.5 5 10
v 5.5 5 1
v 5.5 5 -0
v 6.5 3 10
v 6.5 3 9
v 6.5 3 2
v 6.5 3 1
v 6.5 5 10
v 6.5 5 9
v 6.5 5 2
v 6.5 5 1
v 7.5 3 9
v 7.5 3 8
v 7.5 3 3
v 7.5 3 2
v 7.5 5 9
v 7.5 5 8
v 7.5 5 3
v 7.5 5 2
v 8.5 3 8
v 8.5 3 7
v 8.5 3 4
v 8.5 3 3
v 8.5 5 8
v 8.5 5 7
v 8.5 5 4
v 8.5 5 3
v 9.5 3 7
v 9.5 3 6
v 9.5 3 4
v 9.5 5 7
v 9.5 5 6
v 9.5 5 4
v -2.5 1 17
v -2.5 3 17
v -1.5 0 17
v -1.5 1 17
v -1.5 3 17
v -1.5 4 17
v 1.5 0 17
v 1.5 1 17
v 1.5 3 17
v 1.5 4 17
v 2.5 1 17
v 2.5 3 17
v -1.5 4 15
v -1.5 5 15
v 1.5 4 15
v 1.5 5 15
v -2.5 3 14
v -2.5 4 14
v -2.5 5 14
v -1.5 3 14
v -1.5 4 14
v -1.5 5 14
v 1.5 3 14
v 1.5 4 14
v 1.5 5 14
v 2.5 3 14
v 2.5 4 14
v 2.5 5 14
v -3.5 3 13
v -3.5 5 13
v -2.5 3 13
v -2.5 4 13
v -2.5 5 13
v 2.5 3 13
v 2.5 4 13
v 2.5 5 13
v 3.5 3 13
v 3.5 5 13
v -4.5 3 12
v -4.5 5 12
v -3.5 3 12
v -3.5 5 12
v 3.5 3 12
v 3.5 5 12
v 4.5 3 12
v 4.5 5 12
v -5.5 3 11
v -5.5 5 11
v -4.5 3 11
v -4.5 5 11
v 4.5 3 11
v 4.5 5 11
v 5.5 3 11
v 5.5 5 11
v -6.5 3 10
v -6.5 5 10
v -5.5 3 10
v -5.5 5 10
v 5.5 3 10
v 5.5 5 10
v 6.5 3 10
v 6.5 5 10
v -7.5 3 9
v -7.5 5 9
v -6.5 3 9
v -6.5 5 9
v 6.5 3 9
v 6.5 5 9
v 7.5 3 9
v 7.5 5 9
v -8.5 3 8
v -8.5 5 8
v -7.5 3 8
v -7.5 5 8
v 7.5 3 8
v 7.5 5 8
v 8.5 3 8
v 8.5 5 8
v -9.5 3 7
v -9.5 5 7
v -8.5 3 7
v -8.5 5 7
v 8.5 3 7
v 8.5 5 7
v 9.5 3 7
v 9.5 5 7
v -8.5 3 5
v -8.5 5 5
v -7.5 3 5
v -7.5 5 5
v 7.5 3 5
v 7.5 5 5
v 8.5 3 5
v 8.5 5 5
v -7.5 3 4
v -7.5 5 4
v -6.5 3 4
v -6.5 5 4
v 6.5 3 4
v 6.5 5 4
v 7.5 3 4
v 7.5 5 4
v -6.5 3 3
v -6.5 5 3
v -5.5 3 3
v -5.5 5 3
v 5.5 3 3
v 5.5 5 3
v 6.5 3 3
v 6.5 5 3
v -5.5 3 2
v -5.5 5 2
v -4.5 3 2
v -4.5 5 2
v -1.5 1 2
v -1.5 2 2
v 1.5 1 2
v 1.5 2 2
v 4.5 3 2
v 4.5 5 2
v 5.5 3 2
v 5.5 5 2
v -4.5 3 1
v -4.5 5 1
v -3.5 3 1
v -3.5 5 1
v -2.5 1 1
v -2.5 3 1
v -1.5 1 1
v -1.5 3 1
v 1.5 1 1
v 1.5 3 1
v 2.5 1 1
v 2.5 3 1
v 3.5 3 1
v 3.5 5 1
v 4.5 3 1
v 4.5 5 1
v -3.5 3 -0
v -3.5 5 -0
v -2.5 3 -0
v -1.5 3 -0
v -1.5 4 -0
v -1.5 5 -0
v 1.5 3 -0
v 1.5 4 -0
v 1.5 5 -0
v 2.5 3 -0
v 3.5 3 -0
v 3.5 5 -0
v -2.5 1 15
v -2.5 2 15
v -1.5 0 15
v -1.5 1 15
v -1.5 2 15
v 1.5 0 15
v 1.5 1 15
v 1.5 2 15
v 2.5 1 15
v 2.5 2 15
v -1.5 4 14
v -1.5 5 14
v -0.5 3 14
v -0.5 4 14
v 0.5 3 14
v 0.5 4 14
v 1.5 4 14
v 1.5 5 14
v -2.5 2 13
v -2.5 3 13
v -2.5 4 13
v -2.5 5 13
v -1.5 1 13
v -1.5 2 13
v -1.5 3 13
v -1.5 4 13
v -1.5 5 13
v 1.5 1 13
v 1.5 2 13
v 1.5 3 13
v 1.5 4 13
v 1.5 5 13
v 2.5 2 13
v 2.5 3 13
v 2.5 4 13
v 2.5 5 13
v -3.5 3 12
v -3.5 5 12
v -2.5 3 12
v -2.5 4 12
v -2.5 5 12
v -1.5 3 12
v -1.5 4 12
v 1.5 3 12
v 1.5 4 12
v 2.5 3 12
v 2.5 4 12
v 2.5 5 12
v 3.5 3 12
v 3.5 5 12
v -4.5 3 11
v -4.5 5 11
v -3.5 3 11
v -3.5 5 11
v 3.5 3 11
v 3.5 5 11
v 4.5 3 11
v 4.5 5 11
v -5.5 3 10
v -5.5 5 10
v -4.5 3 10
v -4.5 5 10
v 4.5 3 10
v 4.5 5 10
v 5.5 3 10
v 5.5 5 10
v -6.5 3 9
v -6.5 5 9
v -5.5 3 9
v -5.5 5 9
v 5.5 3 9
v 5.5 5 9
v 6.5 3 9
v 6.5 5 9
v -7.5 3 8
v -7.5 5 8
v -6.5 3 8
v -6.5 5 8
v 6.5 3 8
v 6.5 5 8
v 7.5 3 8
v 7.5 5 8
v -8.5 4 7
v -8.5 5 7
v -7.5 4 7
v -7.5 5 7
v 7.5 4 7
v 7.5 5 7
v 8.5 4 7
v 8.5 5 7
v -8.5 3 6
v -8.5 4 6
v -7.5 3 6
v -7.5 4 6
v 7.5 3 6
v 7.5 4 6
v 8.5 3 6
v 8.5 4 6
v -9.5 3 4
v -9.5 5 4
v -8.5 3 4
v -8.5 5 4
v 8.5 3 4
v 8.5 5 4
v 9.5 3 4
v 9.5 5 4
v -8.5 3 3
v -8.5 5 3
v -7.5 3 3
v -7.5 5 3
v 7.5 3 3
v 7.5 5 3
v 8.5 3 3
v 8.5 5 3
v -7.5 3 2
v -7.5 5 2
v -6.5 3 2
v -6.5 5 2
v 6.5 3 2
v 6.5 5 2
v 7.5 3 2
v 7.5 5 2
v -6.5 3 1
v -6.5 5 1
v -5.5 3 1
v -5.5 5 1
v 5.5 3 1
v 5.5 5 1
v 6.5 3 1
v 6.5 5 1
v -5.5 3 -0
v -5.5 5 -0
v -4.5 3 -0
v -4.5 5 -0
v 4.5 3 -0
v 4.5 5 -0
v 5.5 3 -0
v 5.5 5 -0
v -4.5 3 -1
v -4.5 5 -1
v -2.5 1 -1
v -2.5 3 -1
v -1.5 4 -1
v -1.5 5 -1
v -0.5 3 -1
v -0.5 4 -1
v 0.5 3 -1
v 0.5 4 -1
v 1.5 4 -1
v 1.5 5 -1
v 2.5 1 -1
v 2.5 3 -1
v 4.5 3 -1
v 4.5 5 -1
v -1.5 0 17
v 1.5 0 17
v -1.5 0 15
v 1.5 0 15
v -2.5 1 17
v -1.5 1 17
v 1.5 1 17
v 2.5 1 17
v -2.5 1 15
v -1.5 1 15
v 1.5 1 15
v 2.5 1 15
v -1.5 1 13
v 1.5 1 13
v -1.5 1 2
v 1.5 1 2
v -2.5 1 1
v -1.5 1 1
v 1.5 1 1
v 2.5 1 1
v -2.5 1 -1
v 2.5 1 -1
v -2.5 2 15
v -1.5 2 15
v 1.5 2 15
v 2.5 2 15
v -2.5 2 13
v -1.5 2 13
v 1.5 2 13
v 2.5 2 13
v -1.5 2 2
v 1.5 2 2
v -3.5 3 13
v -2.5 3 13
v -1.5 3 13
v 1.5 3 13
v 2.5 3 13
v 3.5 3 13
v -4.5 3 12
v -3.5 3 12
v -2.5 3 12
v -1.5 3 12
v 1.5 3 12
v 2.5 3 12
v 3.5 3 12
v 4.5 3 12
v -5.5 3 11
v -4.5 3 11
v -3.5 3 11
v 3.5 3 11
v 4.5 3 11
v 5.5 3 11
v -6.5 3 10
v -5.5 3 10
v -4.5 3 10
v 4.5 3 10
v 5.5 3 10
v 6.5 3 10
v -7.5 3 9
v -6.5 3 9
v -5.5 3 9
v 5.5 3 9
v 6.5 3 9
v 7.5 3 9
v -8.5 3 8
v -7.5 3 8
v -6.5 3 8
v 6.5 3 8
v 7.5 3 8
v 8.5 3 8
v -9.5 3 7
v -8.5 3 7
v 8.5 3 7
v 9.5 3 7
v -9.5 3 6
v -8.5 3 6
v -7.5 3 6
v 7.5 3 6
v 8.5 3 6
v 9.5 3 6
v -8.5 3 5
v -7.5 3 5
v 7.5 3 5
v 8.5 3 5
v -9.5 3 4
v -8.5 3 4
v -7.5 3 4
v -6.5 3 4
v 6.5 3 4
v 7.5 3 4
v 8.5 3 4
v 9.5 3 4
v -8.5 3 3
v -7.5 3 3
v -6.5 3 3
v -5.5 3 3
v 5.5 3 3
v 6.5 3 3
v 7.5 3 3
v 8.5 3 3
v -7.5 3 2
v -6.5 3 2
v -5.5 3 2
v -4.5 3 2
v 4.5 3 2
v 5.5 3 2
v 6.5 3 2
v 7.5 3 2
v -6.5 3 1
v -5.5 3 1
v -4.5 3 1
v -3.5 3 1
v 3.5 3 1
v 4.5 3 1
v 5.5 3 1
v 6.5 3 1
v -5.5 3 -0
v -4.5 3 -0
v -3.5 3 -0
v -2.5 3 -0
v 2.5 3 -0
v 3.5 3 -0
v 4.5 3 -0
v 5.5 3 -0
v -4.5 3 -1
v -2.5 3 -1
v 2.5 3 -1
v 4.5 3 -1
v -2.5 3 17
v -1.5 3 17
v 1.5 3 17
v 2.5 3 17
v -2.5 3 14
v -1.5 3 14
v -0.5 3 14
v 0.5 3 14
v 1.5 3 14
v 2.5 3 14
v -2.5 3 1
v -1.5 3 1
v 1.5 3 1
v 2.5 3 1
v -2.5 3 -0
v -1.5 3 -0
v 1.5 3 -0
v 2.5 3 -0
v -0.5 3 -1
v 0.5 3 -1
v -1.5 4 17
v 1.5 4 17
v -1.5 4 15
v 1.5 4 15
v -1.5 4 14
v -0.5 4 14
v 0.5 4 14
v 1.5 4 14
v -2.5 4 13
v -1.5 4 13
v 1.5 4 13
v 2.5 4 13
v -2.5 4 12
v -1.5 4 12
v 1.5 4 12
v 2.5 4 12
v -8.5 4 7
v -7.5 4 7
v 7.5 4 7
v 8.5 4 7
v -8.5 4 6
v -7.5 4 6
v 7.5 4 6
v 8.5 4 6
v -1.5 4 -0
v 1.5 4 -0
v -1.5 4 -1
v -0.5 4 -1
v 0.5 4 -1
v 1.5 4 -1
v -1.5 5 15
v 1.5 5 15
v -2.5 5 14
v -1.5 5 14
v 1.5 5 14
v 2.5 5 14
v -3.5 5 13
v -2.5 5 13
v -1.5 5 13
v 1.5 5 13
v 2.5 5 13
v 3.5 5 13
v -4.5 5 12
v -3.5 5 12
v -2.5 5 12
v 2.5 5 12
v 3.5 5 12
v 4.5 5 12
v -5.5 5 11
v -4.5 5 11
v -3.5 5 11
v 3.5 5 11
v 4.5 5 11
v 5.5 5 11
v -6.5 5 10
v -5.5 5 10
v -4.5 5 10
v 4.5 5 10
v 5.5 5 10
v 6.5 5 10
v -7.5 5 9
v -6.5 5 9
v -5.5 5 9
v 5.5 5 9
v 6.5 5 9
v 7.5 5 9
v -8.5 5 8
v -7.5 5 8
v -6.5 5 8
v 6.5 5 8
v 7.5 5 8
v 8.5 5 8
v -9.5 5 7
v -8.5 5 7
v -7.5 5 7
v 7.5 5 7
v 8.5 5 7
v 9.5 5 7
v -9.5 5 6
v -8.5 5 6
v 8.5 5 6
v 9.5 5 6
v -8.5 5 5
v -7.5 5 5
v 7.5 5 5
v 8.5 5 5
v -9.5 5 4
v -8.5 5 4
v -7.5 5 4
v -6.5 5 4
v 6.5 5 4
v 7.5 5 4
v 8.5 5 4
v 9.5 5 4
v -8.5 5 3
v -7.5 5 3
v -6.5 5 3
v -5.5 5 3
v 5.5 5 3
v 6.5 5 3
v 7.5 5 3
v 8.5 5 3
v -7.5 5 2
v -6.5 5 2
v -5.5 5 2
v -4.5 5 2
v 4.5 5 2
v 5.5 5 2
v 6.5 5 2
v 7.5 5 2
v -6.5 5 1
v -5.5 5 1
v -4.5 5 1
v -3.5 5 1
v 3.5 5 1
v 4.5 5 1
v 5.5 5 1
v 6.5 5 1
v -5.5 5 -0
v -4.5 5 -0
v -3.5 5 -0
v -1.5 5 -0
v 1.5 5 -0
v 3.5 5 -0
v 4.5 5 -0
v 5.5 5 -0
v -4.5 5 -1
v -1.5 5 -1
v 1.5 5 -1
v 4.5 5 -1

# faces
f 4/2/1 2/2/1 1/2/1
f 5/1/1 3/1/1 2/1/1
f 5/2/1 2/2/1 4/2/1
f 6/1/1 3/1/1 5/1/1
f 11/2/1 8/2/1 7/2/1
f 12/2/1 8/2/1 11/2/1
f 13/1/1 10/1/1 9/1/1
f 14/1/1 10/1/1 13/1/1
f 19/2/1 16/2/1 15/2/1
f 20/2/1 16/2/1 19/2/1
f 21/1/1 18/1/1 17/1/1
f 22/1/1 18/1/1 21/1/1
f 27/2/1 24/2/1 23/2/1
f 28/2/1 24/2/1 27/2/1
f 29/1/1 26/1/1 25/1/1
f 30/1/1 26/1/1 29/1/1
f 35/2/1 32/2/1 31/2/1
f 36/2/1 32/2/1 35/2/1
f 37/1/1 34/1/1 33/1/1
f 38/1/1 34/1/1 37/1/1
f 43/2/1 40/2/1 39/2/1
f 44/2/1 40/2/1 43/2/1
f 45/1/1 42/1/1 41/1/1
f 46/1/1 42/1/1 45/1/1
f 49/2/1 48/2/1 47/2/1
f 50/2/1 48/2/1 49/2/1
f 55/1/1 52/1/1 51/1/1
f 57/1/1 55/1/1 51/1/1
f 57/1/1 56/1/1 55/1/1
f 58/1/1 56/1/1 57/1/1
f 59/1/1 56/1/1 58/1/1
f 60/1/1 54/1/1 53/1/1
f 61/1/1 54/1/1 60/1/1
f 62/1/1 54/1/1 61/1/1
f 63/1/1 59/1/1 58/1/1
f 64/1/1 59/1/1 63/1/1
f 65/2/1 64/2/1 63/2/1
f 66/2/1 64/2/1 65/2/1
f 69/1/1 68/1/1 67/1/1
f 70/1/1 68/1/1 69/1/1
f 74/1/1 71/1/1 70/1/1
f 75/1/1 71/1/1 74/1/1
f 76/1/1 73/1/1 72/1/1
f 79/1/1 76/1/1 75/1/1
f 80/1/1 76/1/1 79/1/1
f 81/1/1 73/1/1 76/1/1
f 81/1/1 76/1/1 80/1/1
f 83/1/1 78/1/1 77/1/1
f 84/1/1 78/1/1 83/1/1
f 85/1/1 78/1/1 84/1/1
f 86/1/1 82/1/1 81/1/1
f 86/1/1 81/1/1 80/1/1
f 87/1/1 82/1/1 86/1/1
f 88/2/1 85/2/1 84/2/1
f 89/2/1 85/2/1 88/2/1
f 92/1/1 91/1/1 90/1/1
f 93/1/1 91/1/1 92/1/1
f 98/2/1 95/2/1 94/2/1
f 99/2/1 95/2/1 98/2/1
f 100/1/1 97/1/1 96/1/1
f 101/1/1 97/1/1 100/1/1
f 104/2/1 103/2/1 102/2/1
f 105/2/1 103/2/1 104/2/1
f 110/2/1 107/2/1 106/2/1
f 111/2/1 107/2/1 110/2/1
f 112/1/1 109/1/1 108/1/1
f 113/1/1 109/1/1 112/1/1
f 118/2/1 115/2/1 114/2/1
f 119/2/1 115/2/1 118/2/1
f 120/1/1 117/1/1 116/1/1
f 121/1/1 117/1/1 120/1/1
f 126/2/1 123/2/1 122/2/1
f 127/2/1 123/2/1 126/2/1
f 128/1/1 125/1/1 124/1/1
f 129/1/1 125/1/1 128/1/1
f 134/2/1 131/2/1 130/2/1
f 135/2/1 131/2/1 134/2/1
f 136/1/1 133/1/1 132/1/1
f 137/1/1 133/1/1 136/1/1
f 142/2/1 139/2/1 138/2/1
f 143/2/1 139/2/1 142/2/1
f 144/2/1 142/2/1 138/2/1
f 145/2/1 142/2/1 144/2/1
f 146/1/1 141/1/1 140/1/1
f 147/1/1 141/1/1 146/1/1
f 151/1/1 149/1/1 148/1/1
f 152/2/1 151/2/1 150/2/1
f 153/1/1 149/1/1 151/1/1
f 153/2/1 151/2/1 152/2/1
f 154/1/1 149/1/1 153/1/1
f 155/1/2 156/1/2 158/1/2
f 157/2/2 158/2/2 159/2/2
f 158/1/2 156/1/2 160/1/2
f 159/2/2 158/2/2 160/2/2
f 160/1/2 156/1/2 161/1/2
f 162/2/2 163/2/2 166/2/2
f 166/2/2 163/2/2 167/2/2
f 162/2/2 166/2/2 168/2/2
f 168/2/2 166/2/2 169/2/2
f 164/1/2 165/1/2 170/1/2
f 170/1/2 165/1/2 171/1/2
f 172/2/2 173/2/2 176/2/2
f 176/2/2 173/2/2 177/2/2
f 174/1/2 175/1/2 178/1/2
f 178/1/2 175/1/2 179/1/2
f 180/2/2 181/2/2 184/2/2
f 184/2/2 181/2/2 185/2/2
f 182/1/2 183/1/2 186/1/2
f 186/1/2 183/1/2 187/1/2
f 188/2/2 189/2/2 192/2/2
f 192/2/2 189/2/2 193/2/2
f 190/1/2 191/1/2 194/1/2
f 194/1/2 191/1/2 195/1/2
f 196/2/2 197/2/2 200/2/2
f 200/2/2 197/2/2 201/2/2
f 198/1/2 199/1/2 202/1/2
f 202/1/2 199/1/2 203/1/2
f 204/2/2 205/2/2 206/2/2
f 206/2/2 205/2/2 207/2/2
f 208/2/2 209/2/2 212/2/2
f 212/2/2 209/2/2 213/2/2
f 210/1/2 211/1/2 214/1/2
f 214/1/2 211/1/2 215/1/2
f 216/1/2 217/1/2 218/1/2
f 218/1/2 217/1/2 219/1/2
f 220/1/2 221/1/2 222/1/2
f 222/1/2 221/1/2 223/1/2
f 223/1/2 224/1/2 227/1/2
f 227/1/2 224/1/2 228/1/2
f 225/1/2 226/1/2 229/1/2
f 228/1/2 229/1/2 232/1/2
f 232/1/2 229/1/2 233/1/2
f 229/1/2 226/1/2 234/1/2
f 233/1/2 229/1/2 234/1/2
f 230/1/2 231/1/2 236/1/2
f 236/1/2 231/1/2 237/1/2
f 237/1/2 231/1/2 238/1/2
f 234/1/2 235/1/2 239/1/2
f 233/1/2 234/1/2 239/1/2
f 239/1/2 235/1/2 240/1/2
f 237/2/2 238/2/2 241/2/2
f 241/2/2 238/2/2 242/2/2
f 243/1/2 244/1/2 247/1/2
f 243/1/2 247/1/2 249/1/2
f 247/1/2 248/1/2 249/1/2
f 249/1/2 248/1/2 250/1/2
f 250/1/2 248/1/2 251/1/2
f 245/1/2 246/1/2 252/1/2
f 252/1/2 246/1/2 253/1/2
f 253/1/2 246/1/2 254/1/2
f 250/1/2 251/1/2 255/1/2
f 255/1/2 251/1/2 256/1/2
f 255/2/2 256/2/2 257/2/2
f 257/2/2 256/2/2 258/2/2
f 259/2/2 260/2/2 261/2/2
f 261/2/2 260/2/2 262/2/2
f 263/2/2 264/2/2 267/2/2
f 267/2/2 264/2/2 268/2/2
f 265/1/2 266/1/2 269/1/2
f 269/1/2 266/1/2 270/1/2
f 271/2/2 272/2/2 275/2/2
f 275/2/2 272/2/2 276/2/2
f 273/1/2 274/1/2 277/1/2
f 277/1/2 274/1/2 278/1/2
f 279/2/2 280/2/2 283/2/2
f 283/2/2 280/2/2 284/2/2
f 281/1/2 282/1/2 285/1/2
f 285/1/2 282/1/2 286/1/2
f 287/2/2 288/2/2 291/2/2
f 291/2/2 288/2/2 292/2/2
f 289/1/2 290/1/2 293/1/2
f 293/1/2 290/1/2 294/1/2
f 295/2/2 296/2/2 299/2/2
f 299/2/2 296/2/2 300/2/2
f 297/1/2 298/1/2 301/1/2
f 301/1/2 298/1/2 302/1/2
f 303/2/2 304/2/2 306/2/2
f 304/1/2 305/1/2 307/1/2
f 306/2/2 304/2/2 307/2/2
f 307/1/2 305/1/2 308/1/2
f 312/1/3 310/1/3 309/1/3
f 313/1/3 310/1/3 312/1/3
f 315/1/3 312/1/3 311/1/3
f 315/1/3 314/1/3 313/1/3
f 315/1/3 313/1/3 312/1/3
f 316/1/3 314/1/3 315/1/3
f 317/1/3 314/1/3 316/1/3
f 318/1/3 314/1/3 317/1/3
f 319/1/3 317/1/3 316/1/3
f 320/1/3 317/1/3 319/1/3
f 323/2/3 322/2/3 321/2/3
f 324/2/3 322/2/3 323/2/3
f 328/1/3 326/1/3 325/1/3
f 329/2/3 327/2/3 326/2/3
f 329/1/3 326/1/3 328/1/3
f 330/2/3 327/2/3 329/2/3
f 334/1/3 332/1/3 331/1/3
f 335/2/3 333/2/3 332/2/3
f 335/1/3 332/1/3 334/1/3
f 336/2/3 333/2/3 335/2/3
f 339/2/3 338/2/3 337/2/3
f 340/2/3 338/2/3 339/2/3
f 341/2/3 338/2/3 340/2/3
f 345/2/3 343/2/3 342/2/3
f 345/2/3 344/2/3 343/2/3
f 346/2/3 344/2/3 345/2/3
f 349/2/3 348/2/3 347/2/3
f 350/2/3 348/2/3 349/2/3
f 353/2/3 352/2/3 351/2/3
f 354/2/3 352/2/3 353/2/3
f 357/2/3 356/2/3 355/2/3
f 358/2/3 356/2/3 357/2/3
f 361/2/3 360/2/3 359/2/3
f 362/2/3 360/2/3 361/2/3
f 365/2/3 364/2/3 363/2/3
f 366/2/3 364/2/3 365/2/3
f 369/2/3 368/2/3 367/2/3
f 370/2/3 368/2/3 369/2/3
f 373/2/3 372/2/3 371/2/3
f 374/2/3 372/2/3 373/2/3
f 377/2/3 376/2/3 375/2/3
f 378/2/3 376/2/3 377/2/3
f 381/2/3 380/2/3 379/2/3
f 382/2/3 380/2/3 381/2/3
f 385/2/3 384/2/3 383/2/3
f 386/2/3 384/2/3 385/2/3
f 389/2/3 388/2/3 387/2/3
f 390/2/3 388/2/3 389/2/3
f 393/2/3 392/2/3 391/2/3
f 394/2/3 392/2/3 393/2/3
f 397/1/3 396/1/3 395/1/3
f 398/1/3 396/1/3 397/1/3
f 401/1/3 400/1/3 399/1/3
f 402/1/3 400/1/3 401/1/3
f 405/1/3 404/1/3 403/1/3
f 406/1/3 404/1/3 405/1/3
f 409/1/3 408/1/3 407/1/3
f 410/1/3 408/1/3 409/1/3
f 413/1/3 412/1/3 411/1/3
f 414/1/3 412/1/3 413/1/3
f 417/1/3 416/1/3 415/1/3
f 418/1/3 416/1/3 417/1/3
f 421/1/3 420/1/3 419/1/3
f 422/1/3 420/1/3 421/1/3
f 425/1/3 424/1/3 423/1/3
f 426/1/3 424/1/3 425/1/3
f 429/1/3 428/1/3 427/1/3
f 430/1/3 428/1/3 429/1/3
f 433/1/3 432/1/3 431/1/3
f 434/1/3 432/1/3 433/1/3
f 437/1/3 436/1/3 435/1/3
f 438/1/3 436/1/3 437/1/3
f 441/1/3 440/1/3 439/1/3
f 442/1/3 440/1/3 441/1/3
f 445/1/3 444/1/3 443/1/3
f 446/1/3 444/1/3 445/1/3
f 449/1/3 448/1/3 447/1/3
f 450/1/3 448/1/3 449/1/3
f 451/1/3 448/1/3 450/1/3
f 452/1/3 448/1/3 451/1/3
f 456/1/3 454/1/3 453/1/3
f 456/1/3 455/1/3 454/1/3
f 457/1/3 455/1/3 456/1/3
f 458/1/3 455/1/3 457/1/3
f 459/1/4 460/1/4 462/1/4
f 462/1/4 460/1/4 463/1/4
f 461/1/4 462/1/4 464/1/4
f 464/1/4 462/1/4 465/1/4
f 465/1/4 466/1/4 467/1/4
f 467/1/4 466/1/4 468/1/4
f 469/2/4 470/2/4 472/2/4
f 471/2/4 472/2/4 473/2/4
f 472/2/4 470/2/4 474/2/4
f 473/2/4 472/2/4 474/2/4
f 474/2/4 470/2/4 475/2/4
f 475/2/4 470/2/4 476/2/4
f 477/1/4 478/1/4 482/1/4
f 482/1/4 478/1/4 483/1/4
f 479/2/4 480/2/4 484/2/4
f 484/2/4 480/2/4 485/2/4
f 481/1/4 482/1/4 486/1/4
f 486/1/4 482/1/4 487/1/4
f 487/1/4 488/1/4 491/1/4
f 491/1/4 488/1/4 492/1/4
f 489/2/4 490/2/4 493/2/4
f 493/2/4 490/2/4 494/2/4
f 495/2/4 496/2/4 497/2/4
f 497/2/4 496/2/4 498/2/4
f 498/2/4 496/2/4 499/2/4
f 497/1/4 498/1/4 500/1/4
f 500/1/4 498/1/4 501/1/4
f 502/1/4 503/1/4 504/1/4
f 504/1/4 503/1/4 505/1/4
f 504/2/4 505/2/4 507/2/4
f 505/2/4 506/2/4 507/2/4
f 507/2/4 506/2/4 508/2/4
f 509/2/4 510/2/4 511/2/4
f 511/2/4 510/2/4 512/2/4
f 513/2/4 514/2/4 515/2/4
f 515/2/4 514/2/4 516/2/4
f 517/2/4 518/2/4 519/2/4
f 519/2/4 518/2/4 520/2/4
f 521/2/4 522/2/4 523/2/4
f 523/2/4 522/2/4 524/2/4
f 525/2/4 526/2/4 527/2/4
f 527/2/4 526/2/4 528/2/4
f 529/2/4 530/2/4 531/2/4
f 531/2/4 530/2/4 532/2/4
f 533/2/4 534/2/4 535/2/4
f 535/2/4 534/2/4 536/2/4
f 537/2/4 538/2/4 539/2/4
f 539/2/4 538/2/4 540/2/4
f 541/2/4 542/2/4 543/2/4
f 543/2/4 542/2/4 544/2/4
f 545/2/4 546/2/4 547/2/4
f 547/2/4 546/2/4 548/2/4
f 549/2/4 550/2/4 551/2/4
f 551/2/4 550/2/4 552/2/4
f 553/2/4 554/2/4 555/2/4
f 555/2/4 554/2/4 556/2/4
f 557/1/4 558/1/4 559/1/4
f 559/1/4 558/1/4 560/1/4
f 561/1/4 562/1/4 563/1/4
f 563/1/4 562/1/4 564/1/4
f 565/1/4 566/1/4 567/1/4
f 567/1/4 566/1/4 568/1/4
f 569/1/4 570/1/4 571/1/4
f 571/1/4 570/1/4 572/1/4
f 573/1/4 574/1/4 575/1/4
f 575/1/4 574/1/4 576/1/4
f 577/1/4 578/1/4 579/1/4
f 579/1/4 578/1/4 580/1/4
f 581/1/4 582/1/4 583/1/4
f 583/1/4 582/1/4 584/1/4
f 585/1/4 586/1/4 587/1/4
f 587/1/4 586/1/4 588/1/4
f 589/1/4 590/1/4 591/1/4
f 591/1/4 590/1/4 592/1/4
f 593/1/4 594/1/4 595/1/4
f 595/1/4 594/1/4 596/1/4
f 597/1/4 598/1/4 600/1/4
f 600/1/4 598/1/4 601/1/4
f 599/1/4 600/1/4 601/1/4
f 601/1/4 598/1/4 602/1/4
f 599/1/4 601/1/4 603/1/4
f 603/1/4 601/1/4 604/1/4
f 599/1/4 603/1/4 605/1/4
f 605/1/4 606/1/4 607/1/4
f 605/1/4 607/1/4 609/1/4
f 607/1/4 608/1/4 609/1/4
f 599/1/4 605/1/4 609/1/4
f 609/1/4 608/1/4 610/1/4
f 610/1/4 608/1/4 611/1/4
f 611/1/4 608/1/4 612/1/4
f 615/1/5 614/1/5 613/1/5
f 616/1/5 614/1/5 615/1/5
f 621/1/5 618/1/5 617/1/5
f 622/1/5 618/1/5 621/1/5
f 623/1/5 620/1/5 619/1/5
f 624/1/5 620/1/5 623/1/5
f 625/1/5 623/1/5 622/1/5
f 626/1/5 623/1/5 625/1/5
f 630/1/5 628/1/5 627/1/5
f 631/1/5 628/1/5 630/1/5
f 633/1/5 631/1/5 630/1/5
f 633/1/5 632/1/5 631/1/5
f 633/1/5 630/1/5 629/1/5
f 634/1/5 632/1/5 633/1/5
f 639/1/5 636/1/5 635/1/5
f 640/1/5 636/1/5 639/1/5
f 641/1/5 638/1/5 637/1/5
f 642/1/5 638/1/5 641/1/5
f 643/1/5 641/1/5 640/1/5
f 644/1/5 641/1/5 643/1/5
f 652/2/5 646/2/5 645/2/5
f 653/1/5 647/1/5 646/1/5
f 653/2/5 646/2/5 652/2/5
f 654/1/5 647/1/5 653/1/5
f 655/1/5 649/1/5 648/1/5
f 656/2/5 650/2/5 649/2/5
f 656/1/5 649/1/5 655/1/5
f 657/2/5 650/2/5 656/2/5
f 660/2/5 652/2/5 651/2/5
f 661/2/5 652/2/5 660/2/5
f 662/2/5 658/2/5 657/2/5
f 663/2/5 658/2/5 662/2/5
f 666/2/5 660/2/5 659/2/5
f 667/2/5 660/2/5 666/2/5
f 668/2/5 664/2/5 663/2/5
f 669/2/5 664/2/5 668/2/5
f 672/2/5 666/2/5 665/2/5
f 673/2/5 666/2/5 672/2/5
f 674/2/5 670/2/5 669/2/5
f 675/2/5 670/2/5 674/2/5
f 678/2/5 672/2/5 671/2/5
f 679/2/5 672/2/5 678/2/5
f 680/2/5 676/2/5 675/2/5
f 681/2/5 676/2/5 680/2/5
f 684/2/5 678/2/5 677/2/5
f 685/2/5 682/2/5 681/2/5
f 687/2/5 684/2/5 683/2/5
f 688/2/5 678/2/5 684/2/5
f 688/2/5 684/2/5 687/2/5
f 689/2/5 678/2/5 688/2/5
f 690/2/5 686/2/5 685/2/5
f 690/2/5 685/2/5 681/2/5
f 691/2/5 686/2/5 690/2/5
f 692/2/5 686/2/5 691/2/5
f 693/1/5 688/1/5 687/1/5
f 696/1/5 692/1/5 691/1/5
f 697/1/5 694/1/5 693/1/5
f 697/1/5 693/1/5 687/1/5
f 698/1/5 694/1/5 697/1/5
f 699/1/5 694/1/5 698/1/5
f 702/1/5 696/1/5 695/1/5
f 703/1/5 692/1/5 696/1/5
f 703/1/5 696/1/5 702/1/5
f 704/1/5 692/1/5 703/1/5
f 705/1/5 700/1/5 699/1/5
f 705/1/5 699/1/5 698/1/5
f 706/1/5 700/1/5 705/1/5
f 707/1/5 700/1/5 706/1/5
f 710/1/5 702/1/5 701/1/5
f 710/1/5 703/1/5 702/1/5
f 711/1/5 703/1/5 710/1/5
f 712/1/5 703/1/5 711/1/5
f 713/1/5 708/1/5 707/1/5
f 713/1/5 707/1/5 706/1/5
f 714/1/5 708/1/5 713/1/5
f 715/1/5 708/1/5 714/1/5
f 718/1/5 711/1/5 710/1/5
f 718/1/5 710/1/5 709/1/5
f 719/1/5 711/1/5 718/1/5
f 720/1/5 711/1/5 719/1/5
f 721/1/5 716/1/5 715/1/5
f 721/1/5 715/1/5 714/1/5
f 722/1/5 716/1/5 721/1/5
f 723/1/5 716/1/5 722/1/5
f 726/1/5 719/1/5 718/1/5
f 726/1/5 718/1/5 717/1/5
f 727/1/5 719/1/5 726/1/5
f 728/1/5 719/1/5 727/1/5
f 729/1/5 724/1/5 723/1/5
f 729/1/5 723/1/5 722/1/5
f 730/1/5 724/1/5 729/1/5
f 731/1/5 724/1/5 730/1/5
f 734/1/5 727/1/5 726/1/5
f 734/1/5 726/1/5 725/1/5
f 735/1/5 727/1/5 734/1/5
f 736/1/5 727/1/5 735/1/5
f 737/1/5 732/1/5 731/1/5
f 737/1/5 731/1/5 730/1/5
f 738/1/5 732/1/5 737/1/5
f 739/1/5 735/1/5 734/1/5
f 739/1/5 734/1/5 733/1/5
f 740/1/5 735/1/5 739/1/5
f 741/1/6 742/1/6 745/1/6
f 745/1/6 742/1/6 746/1/6
f 743/1/6 744/1/6 749/1/6
f 749/1/6 744/1/6 750/1/6
f 751/1/6 752/1/6 755/1/6
f 755/1/6 752/1/6 756/1/6
f 753/1/6 754/1/6 757/1/6
f 757/1/6 754/1/6 758/1/6
f 747/1/6 748/1/6 759/1/6
f 759/1/6 748/1/6 760/1/6
f 761/1/6 762/1/6 763/1/6
f 763/1/6 762/1/6 764/1/6
f 765/1/6 766/1/6 770/1/6
f 767/1/6 768/1/6 771/1/6
f 769/1/6 770/1/6 773/1/6
f 770/1/6 766/1/6 774/1/6
f 773/1/6 770/1/6 774/1/6
f 767/1/6 771/1/6 775/1/6
f 771/1/6 772/1/6 775/1/6
f 775/1/6 772/1/6 776/1/6
f 777/2/6 778/2/6 781/2/6
f 781/2/6 778/2/6 782/2/6
f 779/2/6 780/2/6 783/2/6
f 783/2/6 780/2/6 784/2/6
f 774/1/6 766/1/6 785/1/6
f 767/1/6 775/1/6 786/1/6
f 785/1/6 766/1/6 787/1/6
f 787/1/6 766/1/6 788/1/6
f 767/1/6 786/1/6 789/1/6
f 789/1/6 786/1/6 790/1/6
f 791/2/6 792/2/6 794/2/6
f 794/2/6 792/2/6 795/2/6
f 793/2/6 794/2/6 798/2/6
f 798/2/6 794/2/6 799/2/6
f 795/2/6 796/2/6 800/2/6
f 800/2/6 796/2/6 801/2/6
f 797/2/6 798/2/6 804/2/6
f 804/2/6 798/2/6 805/2/6
f 801/2/6 802/2/6 806/2/6
f 806/2/6 802/2/6 807/2/6
f 803/2/6 804/2/6 810/2/6
f 810/2/6 804/2/6 811/2/6
f 807/2/6 808/2/6 812/2/6
f 812/2/6 808/2/6 813/2/6
f 809/2/6 810/2/6 816/2/6
f 816/2/6 810/2/6 817/2/6
f 813/2/6 814/2/6 818/2/6
f 818/2/6 814/2/6 819/2/6
f 815/2/6 816/2/6 822/2/6
f 822/2/6 816/2/6 823/2/6
f 819/2/6 820/2/6 824/2/6
f 824/2/6 820/2/6 825/2/6
f 821/2/6 822/2/6 828/2/6
f 828/2/6 822/2/6 829/2/6
f 825/2/6 826/2/6 830/2/6
f 830/2/6 826/2/6 831/2/6
f 827/2/6 828/2/6 834/2/6
f 834/2/6 828/2/6 835/2/6
f 831/2/6 832/2/6 836/2/6
f 836/2/6 832/2/6 837/2/6
f 833/2/6 834/2/6 839/2/6
f 839/2/6 834/2/6 840/2/6
f 837/2/6 838/2/6 841/2/6
f 841/2/6 838/2/6 842/2/6
f 839/1/6 840/1/6 843/1/6
f 841/1/6 842/1/6 846/1/6
f 843/1/6 844/1/6 847/1/6
f 839/1/6 843/1/6 847/1/6
f 847/1/6 844/1/6 848/1/6
f 848/1/6 844/1/6 849/1/6
f 845/1/6 846/1/6 852/1/6
f 846/1/6 842/1/6 853/1/6
f 852/1/6 846/1/6 853/1/6
f 853/1/6 842/1/6 854/1/6
f 849/1/6 850/1/6 855/1/6
f 848/1/6 849/1/6 855/1/6
f 855/1/6 850/1/6 856/1/6
f 856/1/6 850/1/6 857/1/6
f 851/1/6 852/1/6 860/1/6
f 852/1/6 853/1/6 860/1/6
f 860/1/6 853/1/6 861/1/6
f 861/1/6 853/1/6 862/1/6
f 857/1/6 858/1/6 863/1/6
f 856/1/6 857/1/6 863/1/6
f 863/1/6 858/1/6 864/1/6
f 864/1/6 858/1/6 865/1/6
f 860/1/6 861/1/6 868/1/6
f 859/1/6 860/1/6 868/1/6
f 868/1/6 861/1/6 869/1/6
f 869/1/6 861/1/6 870/1/6
f 865/1/6 866/1/6 871/1/6
f 864/1/6 865/1/6 871/1/6
f 871/1/6 866/1/6 872/1/6
f 872/1/6 866/1/6 873/1/6
f 868/1/6 869/1/6 876/1/6
f 867/1/6 868/1/6 876/1/6
f 876/1/6 869/1/6 877/1/6
f 877/1/6 869/1/6 878/1/6
f 873/1/6 874/1/6 879/1/6
f 872/1/6 873/1/6 879/1/6
f 879/1/6 874/1/6 880/1/6
f 880/1/6 874/1/6 881/1/6
f 876/1/6 877/1/6 884/1/6
f 875/1/6 876/1/6 884/1/6
f 884/1/6 877/1/6 885/1/6
f 885/1/6 877/1/6 886/1/6
f 881/1/6 882/1/6 887/1/6
f 880/1/6 881/1/6 887/1/6
f 887/1/6 882/1/6 888/1/6
f 884/1/6 885/1/6 889/1/6
f 883/1/6 884/1/6 889/1/6
f 889/1/6 885/1/6 890/1/6
